<svg xmlns="http://www.w3.org/2000/svg" fill="none" viewBox="0 0 300 300" height="300" width="300">
<path stroke-miterlimit="10" stroke-width="10.6786" stroke="#015FFF" d="M197.314 189.035L244.629 237.743"></path>
<path stroke-miterlimit="10" stroke-width="10.6786" stroke="#015FFF" d="M123.896 73.1602C83.923 73.1602 51.2922 106.752 51.2922 147.901C51.2922 168.056 59.4499 187.371 72.5022 200.807"></path>
<path stroke-miterlimit="10" stroke-width="10.6786" stroke="#015FFF" d="M95.343 189.046C108.395 202.482 126.342 210.88 146.736 210.88C186.709 210.88 219.34 177.289 219.34 136.139C219.34 94.9898 186.709 61.3984 146.736 61.3984"></path>
<path stroke-linecap="round" stroke-miterlimit="10" stroke-width="10.6786" stroke="#015FFF" fill="#015FFF" d="M123.895 77.3588C126.148 77.3588 127.974 75.4789 127.974 73.1599C127.974 70.8409 126.148 68.9609 123.895 68.9609C121.643 68.9609 119.816 70.8409 119.816 73.1599C119.816 75.4789 121.643 77.3588 123.895 77.3588Z"></path>
<path stroke-linecap="round" stroke-miterlimit="10" stroke-width="10.6786" stroke="#015FFF" fill="#015FFF" d="M147.553 66.435C149.806 66.435 151.632 64.555 151.632 62.236C151.632 59.917 149.806 58.0371 147.553 58.0371C145.301 58.0371 143.474 59.917 143.474 62.236C143.474 64.555 145.301 66.435 147.553 66.435Z"></path>
<path stroke-linecap="round" stroke-miterlimit="10" stroke-width="10.6786" stroke="#015FFF" fill="#015FFF" d="M95.3421 193.234C97.5948 193.234 99.421 191.354 99.421 189.035C99.421 186.716 97.5948 184.836 95.3421 184.836C93.0895 184.836 91.2633 186.716 91.2633 189.035C91.2633 191.354 93.0895 193.234 95.3421 193.234Z"></path>
<path stroke-linecap="round" stroke-miterlimit="10" stroke-width="10.6786" stroke="#015FFF" fill="#015FFF" d="M68.4221 160.478C70.6748 160.478 72.5009 158.598 72.5009 156.279C72.5009 153.96 70.6748 152.08 68.4221 152.08C66.1694 152.08 64.3433 153.96 64.3433 156.279C64.3433 158.598 66.1694 160.478 68.4221 160.478Z"></path>
<path stroke-linecap="round" stroke-miterlimit="10" stroke-width="10.6786" stroke="#015FFF" fill="#015FFF" d="M244.629 241.937C246.882 241.937 248.708 240.057 248.708 237.738C248.708 235.419 246.882 233.539 244.629 233.539C242.376 233.539 240.55 235.419 240.55 237.738C240.55 240.057 242.376 241.937 244.629 241.937Z"></path>
<path stroke-linecap="round" stroke-miterlimit="10" stroke-width="10.6786" stroke="#015FFF" fill="#015FFF" d="M72.5036 204.158C74.7563 204.158 76.5825 202.278 76.5825 199.959C76.5825 197.64 74.7563 195.76 72.5036 195.76C70.251 195.76 68.4248 197.64 68.4248 199.959C68.4248 202.278 70.251 204.158 72.5036 204.158Z"></path>
<path stroke-miterlimit="10" stroke-width="10.6786" stroke="#015FFF" d="M199.523 140.682C199.523 170.205 176.27 193.345 148.366 193.345V210.9"></path>
<path stroke-miterlimit="10" stroke-width="10.6786" stroke="#015FFF" d="M67.6081 156.294C64.345 138.659 70.0554 121.023 81.4762 109.266V87.4316"></path>
</svg>
